<svg version="1.1" id="Layer_1" xmlns="http://www.w3.org/2000/svg" xmlns:xlink="http://www.w3.org/1999/xlink" x="0px" y="0px"
	 width="100%" viewBox="0 0 500 280" enable-background="new 0 0 500 280" xml:space="preserve">
<path fill="#000000" opacity="1.000000" stroke="none" 
	d="
M365.000000,281.000000 
	C244.833359,281.000000 125.166687,280.979614 5.500155,281.094391 
	C1.750690,281.097992 0.899913,280.250000 0.904965,276.499939 
	C1.026892,186.000107 1.024824,95.500069 0.904246,5.000242 
	C0.899684,1.576285 1.576006,0.903030 4.999947,0.905295 
	C168.999832,1.013773 332.999817,1.013764 496.999725,0.905339 
	C500.422974,0.903076 501.100342,1.575286 501.095795,4.999922 
	C500.975220,95.666420 500.975220,186.333130 501.095703,276.999634 
	C501.100250,280.423309 500.426147,281.109711 496.999908,281.098114 
	C453.167023,280.949432 409.333405,281.000000 365.000000,281.000000 
z"/>
<path fill="#DDAF27" opacity="1.000000" stroke="none" 
	d="
M303.369537,137.680756 
	C301.277588,137.865967 299.556976,137.912476 297.411011,137.888901 
	C291.503448,137.786423 286.051147,136.674164 280.265564,137.596588 
	C277.625305,137.883347 275.268402,137.937561 272.471130,138.030899 
	C271.161865,138.984375 270.167084,138.828262 268.832886,138.199432 
	C266.851471,136.149826 267.053192,134.128525 268.213654,132.214172 
	C269.062744,130.813461 269.981567,129.529175 269.546448,127.435524 
	C269.515076,126.620796 269.508240,126.153389 269.507141,125.331299 
	C269.123688,122.526215 271.140228,121.482422 272.472717,120.121445 
	C287.172089,105.107758 302.189331,90.415138 317.302551,75.819252 
	C318.841278,74.333199 320.565521,72.964348 321.676422,70.626068 
	C321.966125,69.813965 322.166443,69.362762 322.690887,68.680191 
	C323.439392,68.219398 323.925476,68.124557 324.794647,68.235535 
	C328.107208,72.817375 332.285980,73.477356 337.076813,72.070015 
	C338.581055,71.628136 339.963959,71.526489 341.416077,72.965973 
	C342.087921,75.739891 340.115784,76.484489 338.256958,77.716896 
	C334.914825,78.593559 331.939789,78.302292 328.579773,78.018074 
	C323.276672,77.695145 322.372192,82.450439 319.700745,85.159866 
	C319.816406,85.499329 319.745148,85.748665 319.620117,85.783020 
	C318.365784,85.320992 318.062042,86.292160 317.680450,87.203903 
	C317.802979,87.500633 317.743500,87.742607 317.622864,87.773689 
	C314.361969,88.058060 312.885651,90.212311 311.815186,93.141762 
	C311.838745,93.480171 311.754578,93.752228 311.618744,93.794922 
	C307.469421,94.572495 305.564850,97.651207 303.782776,101.149063 
	C303.832520,101.487389 303.754700,101.750961 303.623169,101.790710 
	C298.954376,102.032677 298.450806,106.783768 295.698181,109.176605 
	C295.825928,109.498703 295.753082,109.755821 295.624451,109.792007 
	C290.286987,111.262619 287.639465,115.909637 284.283142,119.430595 
	C282.875427,120.907387 280.227448,121.788963 280.055054,124.764374 
	C278.615601,127.491013 280.081390,127.959656 282.020996,127.984291 
	C285.659790,128.030502 289.299561,128.003952 293.391968,128.035645 
	C297.389954,126.872841 301.042725,127.586784 304.637390,127.540192 
	C315.412750,127.400528 326.190582,127.556503 337.421814,127.300125 
	C340.593292,127.430260 342.171936,125.226646 344.619324,124.063499 
	C346.160950,124.074493 347.405487,123.846878 348.910614,124.387772 
	C350.306183,126.084686 349.962006,127.716446 348.647797,128.520874 
	C345.174744,130.646744 344.530701,134.315674 342.809143,137.817688 
	C340.882446,138.776062 339.282867,137.780869 337.249023,138.003357 
	C333.063263,137.998367 329.302765,138.000748 325.115967,138.000000 
	C322.180115,138.032974 319.668945,137.922653 316.755096,138.169464 
	C316.079803,138.313126 315.810333,138.373062 315.207062,138.187943 
	C314.873260,137.942886 314.422974,137.958954 314.207672,137.892700 
	C310.591400,137.147186 307.158386,137.623901 303.369537,137.680756 
z"/>
<path fill="#0D3146" opacity="1.000000" stroke="none" 
	d="
M243.998016,154.675507 
	C238.801971,161.534515 232.127960,166.559555 226.176178,172.332199 
	C218.647751,179.634018 211.317490,187.140030 203.887894,194.544037 
	C202.116943,196.308899 200.352234,198.068069 199.033127,200.625061 
	C197.639755,201.414658 196.948074,200.647919 196.057724,199.536224 
	C194.983963,197.662125 194.642853,195.964874 194.515350,193.840179 
	C194.492126,192.501923 194.319138,191.525894 194.775803,190.246277 
	C207.437241,177.709930 219.924088,165.492722 232.698700,153.104462 
	C236.624130,156.146469 233.573135,158.238159 232.152481,160.153564 
	C234.801422,157.440765 237.470276,153.761047 242.595062,153.158112 
	C243.365723,153.528183 243.692566,153.881622 243.998016,154.675507 
z"/>
<path fill="#CB6864" opacity="1.000000" stroke="none" 
	d="
M258.247009,127.346008 
	C258.127380,123.280876 258.072388,119.594223 258.080994,115.450653 
	C259.774933,113.454010 259.465393,111.440346 259.475861,109.509659 
	C259.527527,99.982529 259.489624,90.455322 259.502014,80.471336 
	C259.513885,75.486717 259.458954,70.958786 259.519531,65.984512 
	C259.496155,64.367851 259.501831,63.197735 259.499573,61.603561 
	C259.517792,59.803345 259.460632,58.426193 259.630066,56.664997 
	C262.959076,54.696751 262.438477,50.720539 264.987122,48.318504 
	C265.561340,48.114246 265.801758,48.070999 266.400330,48.067368 
	C266.973724,48.203545 267.188965,48.300102 267.654480,48.636047 
	C268.004669,49.078365 268.104584,49.281300 268.313904,49.800037 
	C268.507660,50.767677 268.498962,51.422974 268.485138,52.398304 
	C268.355194,53.359406 268.431213,53.998566 268.494629,54.964813 
	C268.500183,57.078693 268.501495,58.865631 268.491333,61.003742 
	C268.360718,62.309681 268.045288,63.261818 268.469666,64.612679 
	C268.499512,65.814384 268.512512,66.627960 268.168335,67.842560 
	C267.901306,85.228195 268.034302,102.186287 268.032928,119.590248 
	C268.114441,120.908028 268.427460,121.730476 268.522644,123.001556 
	C267.358978,126.366745 264.272095,127.248199 261.947083,129.500946 
	C261.370483,129.793472 261.119751,129.867111 260.477966,129.931763 
	C258.977570,129.607971 258.289764,128.952774 258.247009,127.346008 
z"/>
<path fill="#C7696C" opacity="1.000000" stroke="none" 
	d="
M302.822754,168.772644 
	C303.455170,168.977234 303.721741,169.136154 303.981750,169.656616 
	C307.085785,176.422043 313.376404,179.859558 318.504700,184.648117 
	C319.086578,184.728912 319.339020,184.868942 320.371552,185.494781 
	C321.141907,185.998154 321.328613,185.975006 321.369507,186.059692 
	C321.089111,187.370071 322.041687,187.790390 323.143188,188.246796 
	C323.490417,188.157501 323.765289,188.265930 323.812103,188.406036 
	C323.896393,189.053360 323.965149,189.556274 324.097473,190.434875 
	C323.782135,192.309143 322.871735,193.542145 321.969360,195.164078 
	C319.583923,196.781586 318.529114,195.009293 317.063171,194.004791 
	C313.296814,191.423965 311.053650,186.981430 306.177551,185.236465 
	C297.881104,176.666641 288.483948,169.721619 280.976257,160.466431 
	C276.284729,154.648163 276.329651,152.555679 281.591187,149.263199 
	C286.835083,151.928650 289.928528,156.534714 293.805847,160.690094 
	C295.950989,164.454224 298.407104,167.484787 302.822754,168.772644 
z"/>
<path fill="#D4AD3E" opacity="1.000000" stroke="none" 
	d="
M177.813416,56.088955 
	C181.504456,52.266468 185.788345,52.388218 190.146942,53.673351 
	C195.667236,55.301014 198.309753,59.561417 198.889694,64.908676 
	C199.222519,67.977219 200.542801,70.106262 202.584595,72.115257 
	C211.560135,80.946655 220.173126,90.151909 229.782013,98.329346 
	C231.273941,99.599007 232.367294,101.239220 233.545212,102.825485 
	C235.135712,104.967354 235.630768,106.948868 234.270996,109.127159 
	C232.638336,111.742607 229.907471,111.257072 227.530685,110.726372 
	C226.205231,110.430412 224.777649,109.424904 223.933517,108.326233 
	C217.654343,100.153664 209.842453,93.544067 202.112854,86.404106 
	C201.459671,85.279976 200.934799,84.464958 200.802490,83.161331 
	C202.554855,80.958656 204.681671,80.896812 206.211365,82.441093 
	C212.627792,88.918777 219.901230,94.616699 223.293854,99.757866 
	C216.994400,92.338638 207.728348,83.576622 198.006653,74.778633 
	C194.771454,73.116791 193.530624,70.445404 192.871475,67.470657 
	C191.210846,59.976353 189.284058,58.695168 181.879669,60.447353 
	C180.863831,60.687740 179.909927,60.570988 178.545547,60.320168 
	C177.038666,59.738770 176.512558,58.875179 176.742416,57.288136 
	C176.935822,56.918102 176.962601,56.982044 176.929611,56.992683 
	C177.181381,56.801674 177.433899,56.565132 177.813416,56.088955 
z"/>
<path fill="#D4AD3E" opacity="1.000000" stroke="none" 
	d="
M267.223511,124.667778 
	C267.168213,123.490639 267.138031,122.733482 267.091309,121.597519 
	C267.588409,120.514618 267.304718,119.420944 268.519653,119.015762 
	C269.914154,122.824654 271.077789,119.289482 271.450562,118.923859 
	C280.244080,110.297989 288.710052,101.326920 297.707733,92.924171 
	C304.488434,86.591812 311.240906,80.243324 317.821838,73.705002 
	C319.921692,71.618752 321.054657,69.363251 321.045258,66.297394 
	C321.030609,61.525532 325.058289,55.700233 329.188202,54.367813 
	C334.659576,52.602619 339.697113,53.633842 343.982574,57.518089 
	C347.758972,60.940926 348.958649,66.463509 346.970093,71.433136 
	C345.162201,75.951370 341.320160,77.949745 336.466431,79.010132 
	C334.701660,79.879356 333.180237,79.379280 331.317657,79.239243 
	C329.507111,79.173920 327.945465,78.491020 326.402893,79.933525 
	C325.430298,79.281631 325.491394,78.520050 326.622498,77.668144 
	C330.476501,77.426979 333.922516,77.583290 337.723724,77.207703 
	C339.003479,75.856369 339.925507,74.744644 340.944855,73.337982 
	C341.051514,72.126129 340.950958,71.198578 341.454315,69.995712 
	C343.239288,67.942680 343.495575,66.162514 341.598816,64.015381 
	C341.323456,63.498528 341.232452,63.282288 341.060120,62.727581 
	C338.654388,57.285564 333.191864,56.973110 329.416565,62.080338 
	C327.975769,64.452759 327.550476,67.017769 325.310791,68.848534 
	C324.551025,68.978920 324.146271,68.995499 323.437958,69.024651 
	C321.738617,69.007706 322.857697,69.995667 322.756073,70.651947 
	C322.501892,72.807137 321.018188,73.968872 319.720520,75.237274 
	C310.610016,84.142288 301.128876,92.741875 292.346771,101.882706 
	C285.254120,109.265030 277.515961,116.165527 271.076477,124.626602 
	C269.763885,126.022797 268.536163,126.277855 267.223511,124.667778 
z"/>
<path fill="#D4AD3E" opacity="1.000000" stroke="none" 
	d="
M257.943878,127.347061 
	C258.640533,127.546074 259.098724,128.124619 259.731628,128.917023 
	C260.080597,129.361435 260.254822,129.591995 260.449524,130.257568 
	C260.346130,130.957001 260.222229,131.221436 259.758667,131.769302 
	C259.144958,132.169952 258.870850,132.287170 258.165527,132.536423 
	C253.451462,133.374420 249.136658,132.965958 244.839706,132.976364 
	C223.458588,133.028137 202.077271,132.991562 180.696060,133.014038 
	C178.721191,133.016113 176.715424,132.730118 174.428024,133.633026 
	C173.230301,134.980774 172.862656,136.423752 171.332703,137.522156 
	C170.282532,137.840530 169.547760,137.891983 168.450592,138.016998 
	C164.482590,135.657944 164.090958,133.727097 166.595367,128.421982 
	C178.377167,126.300896 189.837875,127.187050 201.743927,127.103439 
	C212.476913,127.938606 222.747864,127.267242 233.470276,127.589325 
	C241.854904,128.272552 249.779785,128.123795 257.943878,127.347061 
z"/>
<path fill="#12353E" opacity="1.000000" stroke="none" 
	d="
M166.729340,127.920258 
	C166.763031,131.258759 166.425034,134.404388 167.790573,137.783401 
	C164.917313,143.704330 160.450150,147.124146 153.671463,147.003479 
	C147.824493,146.899384 142.983536,143.203979 141.336700,137.295380 
	C139.994217,132.478668 142.792450,125.618767 147.182083,122.965378 
	C152.377548,119.824898 158.624451,120.362877 162.812958,124.308617 
	C164.024368,125.449821 165.241928,126.584518 166.729340,127.920258 
z"/>
<path fill="#C16B6F" opacity="1.000000" stroke="none" 
	d="
M322.766083,191.289734 
	C323.159912,190.461655 323.330505,189.903687 323.680023,188.945953 
	C326.530334,191.085922 329.840607,189.770142 332.866638,189.951187 
	C339.531830,190.349945 346.940155,195.427078 346.132935,203.295349 
	C345.471252,209.745270 342.656891,213.816864 335.723328,215.645264 
	C331.856079,216.665070 324.056030,212.933273 322.037140,208.887985 
	C321.110962,207.032104 319.853088,204.826248 320.130066,202.987656 
	C320.805054,198.506699 318.172028,196.006866 315.272827,193.962906 
	C311.849213,191.549271 309.212341,188.407623 306.017914,185.357849 
	C308.401215,184.220566 310.261566,185.152191 312.052612,186.992340 
	C314.695984,189.708191 317.569885,192.199631 320.656403,194.899338 
	C324.975372,195.311813 325.332245,198.406113 325.911530,201.391525 
	C327.059265,207.306488 329.315948,209.132645 334.613220,208.540955 
	C337.969452,208.166077 340.414429,205.645233 340.238678,202.740997 
	C340.069458,199.944565 336.773590,196.771271 333.872681,196.885025 
	C330.733429,197.008118 327.595398,197.705154 324.794189,195.481064 
	C323.473022,194.432083 321.919342,193.663437 322.766083,191.289734 
z"/>
<path fill="#D8AB30" opacity="1.000000" stroke="none" 
	d="
M171.455261,137.865250 
	C171.011658,136.457886 171.006042,135.126694 171.003296,133.396027 
	C198.450714,133.007935 225.895248,132.986221 253.339783,133.016464 
	C254.339737,133.017578 255.342270,133.059937 256.633484,133.889709 
	C257.728760,135.030853 257.857147,135.973389 257.257446,137.402527 
	C244.576263,137.867188 232.190399,137.948380 219.804443,137.967804 
	C217.667770,137.971146 215.577805,138.015427 213.164505,138.911163 
	C211.099457,138.128693 209.395889,138.629486 207.444122,138.682327 
	C201.774246,138.864105 196.390839,138.909058 190.550476,138.880524 
	C187.716721,138.180832 185.302338,138.603439 182.579086,138.706940 
	C178.795685,138.603256 175.412140,137.512589 171.455261,137.865250 
z"/>
<path fill="#BF6F73" opacity="1.000000" stroke="none" 
	d="
M261.285767,55.731140 
	C261.025299,57.375149 261.006714,58.767181 260.987061,60.576859 
	C260.348999,61.570877 259.617615,61.718781 258.485657,61.236591 
	C258.117401,58.835018 257.937286,56.666553 258.040344,54.511631 
	C258.184753,51.491520 257.469086,49.432026 254.525925,47.641155 
	C249.484634,44.573589 248.438202,35.036362 252.121918,30.405460 
	C257.001984,24.270620 265.429993,23.662457 270.039032,27.290115 
	C279.561737,34.785187 276.202362,45.121120 269.002014,50.013577 
	C268.718964,50.467491 268.547333,50.566597 268.234711,50.404030 
	C268.093689,50.142353 268.010040,50.062542 267.980682,50.012726 
	C267.797394,49.805038 267.643463,49.647171 267.259033,49.252083 
	C267.028534,49.014866 266.990509,49.012451 266.971558,49.010895 
	C264.745453,45.756699 266.854919,43.328255 268.736664,41.124557 
	C271.536652,37.845482 269.878052,35.844360 267.233551,33.779221 
	C263.604156,30.944984 259.644897,30.887531 257.096100,33.938728 
	C254.985840,36.464996 254.860168,38.999802 257.609314,41.287628 
	C260.363556,43.579716 262.149567,46.554646 262.886414,50.000668 
	C263.288055,51.878960 263.398132,54.010456 261.285767,55.731140 
z"/>
<path fill="#0D303F" opacity="1.000000" stroke="none" 
	d="
M196.489624,199.329269 
	C197.506226,199.507721 197.992477,200.024780 198.665955,200.727081 
	C199.147842,209.334610 194.941635,214.966553 187.659546,215.900085 
	C180.887878,216.768204 174.923660,212.842224 173.319168,206.460464 
	C171.336319,198.573822 177.061127,191.300598 186.618835,190.096161 
	C187.547562,190.695496 187.898178,191.348221 187.903778,192.507324 
	C186.677811,195.523331 183.638443,196.169525 182.009293,198.628448 
	C179.833572,201.912323 180.287018,204.691803 182.324020,207.182495 
	C184.577728,209.938141 187.339798,208.596939 189.820297,206.942169 
	C190.929657,206.202103 191.918930,205.361221 192.892715,204.005798 
	C194.437500,202.655899 195.479172,201.361237 196.489624,199.329269 
z"/>
<path fill="#D4AD3E" opacity="1.000000" stroke="none" 
	d="
M252.547943,227.556549 
	C260.916595,215.727463 257.174683,202.398590 257.915863,189.862579 
	C258.366547,182.239716 258.021912,174.569839 258.106018,166.456909 
	C258.978668,165.220261 259.922882,165.134277 261.361145,165.679947 
	C263.407501,167.560638 262.977478,169.645386 262.985474,171.588638 
	C263.034607,183.513504 262.959106,195.438629 263.045532,207.839111 
	C262.416779,213.341843 263.734344,218.513641 261.350677,223.455872 
	C259.939087,226.382629 258.494476,228.622162 254.533600,228.588379 
	C253.790436,228.376266 253.497345,228.279434 252.547943,227.556549 
z"/>
<path fill="#E1AB14" opacity="1.000000" stroke="none" 
	d="
M257.200653,137.887375 
	C256.964386,137.108627 256.966583,136.410370 256.963837,135.362991 
	C256.777649,133.533447 257.387909,132.402649 258.754242,131.265366 
	C258.996887,131.032089 259.470154,130.975906 259.707336,130.953003 
	C263.389557,129.399399 265.400665,124.542130 270.657959,126.682465 
	C273.885986,128.998566 273.798767,131.117325 270.881897,133.021530 
	C269.636993,133.834244 269.082977,134.828232 269.009277,136.597183 
	C270.477600,140.050476 267.400665,142.794601 268.231476,146.187653 
	C267.067719,147.977646 266.701752,149.802734 265.160217,151.345306 
	C262.303314,151.934830 261.689606,150.373962 261.527496,148.341492 
	C261.383789,146.540268 261.387939,144.697800 259.958496,142.860260 
	C259.249481,141.213058 259.900696,139.530457 258.222656,138.273117 
	C257.768951,138.029922 257.604034,137.998886 257.200653,137.887375 
z"/>
<path fill="#D2B04A" opacity="1.000000" stroke="none" 
	d="
M349.259888,125.270493 
	C347.849274,124.803589 346.683411,124.577347 345.231506,124.133850 
	C354.230347,119.619209 356.500244,119.876602 362.427887,125.898857 
	C367.472656,131.024124 365.967010,142.007309 359.373718,145.959503 
	C358.818939,146.055435 358.588470,146.004257 358.049438,145.776794 
	C357.590240,145.416611 357.439606,145.232712 357.168213,144.712769 
	C356.988647,143.666977 357.086151,142.960434 357.084229,141.900574 
	C357.337128,139.762085 358.465790,138.267868 358.589539,136.388275 
	C358.913300,131.469315 357.489166,129.008240 352.854706,127.401146 
	C351.588470,126.962074 350.367096,126.597511 349.259888,125.270493 
z"/>
<path fill="#D4AD3E" opacity="1.000000" stroke="none" 
	d="
M266.668274,146.349701 
	C266.151306,142.867554 266.630005,140.055023 268.880249,137.292603 
	C269.794464,137.288284 270.598602,137.603836 271.716736,137.994705 
	C272.585815,138.798965 273.140900,139.527908 273.821289,140.511749 
	C273.890656,140.982819 273.834747,141.198975 273.582245,141.685608 
	C270.445618,143.142517 270.760742,145.630569 271.026428,148.393127 
	C271.095917,148.947281 271.081696,149.173752 270.939270,149.717026 
	C270.653748,150.199112 270.496399,150.364395 270.031799,150.680450 
	C268.375183,152.241348 269.042877,153.991547 269.039276,155.567291 
	C268.995026,174.988190 269.046844,194.409317 269.003235,213.830215 
	C268.996521,216.819412 269.311615,219.663971 271.007019,222.646332 
	C270.884277,223.465454 270.475281,223.793777 269.560364,224.060593 
	C267.938477,224.088150 267.126617,223.405670 266.254486,222.090942 
	C265.915405,221.477371 265.818604,221.209579 265.665649,220.514313 
	C265.588623,219.499207 265.623077,218.914749 265.799286,217.889648 
	C266.912659,211.676147 266.521454,205.848923 266.467194,200.050278 
	C266.318146,184.117661 267.019043,168.177231 266.015167,151.789459 
	C266.071411,149.794052 265.821960,148.226410 266.668274,146.349701 
z"/>
<path fill="#06364B" opacity="1.000000" stroke="none" 
	d="
M243.319183,153.643036 
	C238.824387,157.206863 234.411209,160.109131 231.138000,164.290207 
	C229.995010,165.750198 228.728394,166.088181 227.361664,164.882233 
	C225.802429,163.506470 226.879166,162.113647 227.787598,160.980392 
	C229.657272,158.647964 233.383347,157.661102 232.982391,153.317322 
	C233.390640,152.600250 233.794830,152.267090 234.512421,151.831833 
	C235.408798,150.968765 235.991776,150.207794 236.753433,149.221451 
	C237.399017,148.612640 237.977692,148.509583 238.735596,148.144104 
	C238.934769,147.931686 238.766632,147.761887 238.819229,147.654602 
	C243.919601,147.470764 244.753571,148.466751 243.319183,153.643036 
z"/>
<path fill="#BF6F73" opacity="1.000000" stroke="none" 
	d="
M272.717285,141.323013 
	C273.136536,141.013123 273.297974,140.960968 273.703003,140.837738 
	C276.732452,143.167068 279.660736,145.435684 281.696594,148.981934 
	C279.924255,152.392105 278.867157,155.739334 280.930176,159.767914 
	C276.561188,158.664078 274.593872,154.394836 271.088074,151.447891 
	C270.709229,150.913864 270.503510,150.653458 270.148468,150.196167 
	C269.941895,149.849533 269.914490,149.676208 269.878235,149.239838 
	C271.305908,146.712158 270.213806,143.561981 272.717285,141.323013 
z"/>
<path fill="#C57C7B" opacity="1.000000" stroke="none" 
	d="
M268.904419,118.649963 
	C268.386383,119.700096 267.938263,120.274300 267.282410,121.033615 
	C267.044830,104.640465 267.001404,88.062195 267.011383,71.483963 
	C267.012177,70.185387 267.385925,68.887032 267.806396,67.227005 
	C268.140472,66.674042 268.254486,66.482658 268.629028,66.500549 
	C268.917786,83.864548 268.946045,101.019287 268.904419,118.649963 
z"/>
<path fill="#C16B6F" opacity="1.000000" stroke="none" 
	d="
M260.663849,79.764648 
	C260.985626,89.943748 261.015991,99.892441 260.963684,109.840706 
	C260.953766,111.724899 261.531281,113.990494 258.519043,114.920876 
	C258.104431,103.635551 258.064331,92.277367 258.093994,80.454453 
	C258.799133,79.401260 259.532135,79.279610 260.663849,79.764648 
z"/>
<path fill="#D8AB30" opacity="1.000000" stroke="none" 
	d="
M257.968750,138.523621 
	C260.261932,136.975037 260.974182,138.162338 261.048584,140.597626 
	C262.036377,149.083847 264.584534,157.188705 261.409302,165.735382 
	C260.285431,166.006134 259.582764,166.001221 258.528809,165.994507 
	C258.119537,156.990570 258.061554,147.988434 257.968750,138.523621 
z"/>
<path fill="#D4AD3E" opacity="1.000000" stroke="none" 
	d="
M358.656281,142.621307 
	C358.705231,143.428543 358.469635,143.962845 358.107910,144.760544 
	C355.920959,146.091995 353.714447,145.145569 352.028839,145.488815 
	C353.545929,145.464920 355.492493,145.584686 357.700195,145.216217 
	C358.218353,145.243774 358.472137,145.474670 358.887634,145.906097 
	C351.281128,148.601776 345.564575,147.062576 341.032684,140.752563 
	C339.492493,138.608032 337.655518,139.153259 335.368866,138.917999 
	C334.849731,138.685272 334.734314,138.521759 334.716736,138.074463 
	C335.349579,137.470566 335.971344,137.520706 336.777527,137.189453 
	C338.713379,137.001724 340.420959,137.008575 342.555267,137.018677 
	C343.366882,136.704056 344.002686,136.210342 344.262115,136.441208 
	C348.298828,140.033295 353.766541,140.160767 358.656281,142.621307 
z"/>
<path fill="#D2B04A" opacity="1.000000" stroke="none" 
	d="
M274.848511,235.901215 
	C273.085724,245.535858 261.008118,248.670776 253.077271,241.403748 
	C252.997375,240.063339 253.090912,239.052521 254.215820,238.095840 
	C256.768768,236.815414 258.725861,238.045532 260.551331,238.937057 
	C263.779083,240.513443 266.153137,239.726959 268.184235,237.004883 
	C269.245300,235.582840 270.181152,233.914093 272.725739,234.455902 
	C274.139954,234.213455 272.227051,237.710388 274.848511,235.901215 
z"/>
<path fill="#D2B04A" opacity="1.000000" stroke="none" 
	d="
M280.092499,125.101837 
	C278.908508,124.911095 275.682739,125.292915 278.238464,123.225739 
	C282.924103,119.435822 285.943298,114.183617 290.623077,110.493484 
	C291.896667,109.489227 293.168671,108.962151 295.126221,109.664345 
	C291.227722,114.151855 286.959595,118.475510 282.373596,122.946724 
	C281.392059,123.460571 280.714966,123.811348 280.251434,124.806328 
	C280.131134,125.063972 280.111053,125.095825 280.092499,125.101837 
z"/>
<path fill="#D8AB30" opacity="1.000000" stroke="none" 
	d="
M196.431824,79.568367 
	C193.465622,78.170464 190.578217,78.976372 187.912308,79.068558 
	C184.089005,79.200745 180.544266,78.661278 177.063324,76.364502 
	C177.835831,74.162720 179.903473,74.314209 181.839844,73.405106 
	C186.405594,72.261986 190.597824,72.472527 195.175690,73.328850 
	C196.015259,73.813560 196.405045,74.193275 196.901764,74.999374 
	C197.444687,76.604691 197.391556,77.841354 196.431824,79.568367 
z"/>
<path fill="#C16B6F" opacity="1.000000" stroke="none" 
	d="
M318.641327,184.286285 
	C318.185028,184.600861 317.319275,184.918076 316.898987,184.615860 
	C312.149506,181.200638 307.150787,178.022232 304.021179,172.856216 
	C303.654266,172.250534 303.879639,171.286011 303.942444,170.186523 
	C308.849243,174.590546 313.644012,179.295883 318.641327,184.286285 
z"/>
<path fill="#12353E" opacity="1.000000" stroke="none" 
	d="
M243.108856,154.165497 
	C243.455948,151.026199 242.302933,149.052368 239.181396,147.795135 
	C240.391098,143.898239 243.435745,144.410843 245.803467,145.782944 
	C247.982620,147.045792 247.846527,149.686493 246.610748,151.911133 
	C246.063141,152.896942 245.289291,153.757065 244.337830,154.856598 
	C243.798416,154.812408 243.539291,154.585861 243.108856,154.165497 
z"/>
<path fill="#BF6F73" opacity="1.000000" stroke="none" 
	d="
M260.987610,79.529587 
	C260.279053,79.994278 259.574127,79.993355 258.516479,79.991081 
	C258.117188,75.302094 258.070618,70.614449 258.092896,65.465408 
	C258.795532,64.403893 259.531616,64.282318 260.669342,64.768982 
	C260.990814,69.688919 260.990997,74.376450 260.987610,79.529587 
z"/>
<path fill="#D4B360" opacity="1.000000" stroke="none" 
	d="
M275.502228,235.817047 
	C274.283722,236.476105 273.196869,237.687515 273.011230,235.223312 
	C270.997833,233.307205 270.021057,230.989151 268.930420,228.326950 
	C268.811035,226.481705 267.660828,225.106125 268.716705,223.273376 
	C269.461426,222.991043 269.953308,222.990707 270.815552,222.997345 
	C275.885651,226.038071 276.373596,230.628998 275.502228,235.817047 
z"/>
<path fill="#FFF9B1" opacity="1.000000" stroke="none" 
	d="
M337.420776,127.076569 
	C337.071503,128.302368 335.844299,128.085098 334.704742,128.088226 
	C321.402649,128.124649 308.100586,128.150131 294.321777,128.121063 
	C294.884888,126.011749 296.772614,127.013550 298.237488,127.005875 
	C311.146393,126.938316 324.055878,126.992050 337.420776,127.076569 
z"/>
<path fill="#D8AB30" opacity="1.000000" stroke="none" 
	d="
M176.615875,57.086529 
	C177.432755,57.538708 177.929703,58.159309 178.714691,58.890762 
	C181.204926,62.232471 179.140472,65.168945 178.159302,68.505653 
	C176.679642,71.133270 175.099960,67.812500 173.460983,69.002075 
	C172.400589,64.573715 173.104202,60.580120 176.615875,57.086529 
z"/>
<path fill="#D2B04A" opacity="1.000000" stroke="none" 
	d="
M173.083694,69.326965 
	C173.558517,67.580811 173.965134,66.203461 174.408295,64.702339 
	C175.562698,65.854973 174.610580,67.990891 176.977295,69.000320 
	C178.760773,70.623428 179.621643,72.211494 180.911041,74.278214 
	C180.416809,76.879356 178.819458,75.995461 177.198685,76.042862 
	C174.559128,74.548820 173.142120,72.515503 173.083694,69.326965 
z"/>
<path fill="#FFF9B1" opacity="1.000000" stroke="none" 
	d="
M233.646561,127.370239 
	C223.584381,128.101959 213.236847,128.427322 202.556885,127.385117 
	C212.601761,127.142174 222.981354,127.111618 233.646561,127.370239 
z"/>
<path fill="#D2B04A" opacity="1.000000" stroke="none" 
	d="
M304.081482,101.297447 
	C303.177979,96.591423 305.585724,93.810776 311.112122,93.673080 
	C309.098755,96.260925 306.714600,98.684212 304.081482,101.297447 
z"/>
<path fill="#D8AB30" opacity="1.000000" stroke="none" 
	d="
M255.235657,238.723724 
	C254.451706,239.552765 253.897766,240.111588 253.130798,240.874786 
	C249.773804,236.814682 248.875137,232.274185 251.559937,227.132233 
	C251.891663,226.930466 252.044006,227.053116 252.120438,227.114120 
	C254.209122,229.425842 254.003326,232.551346 255.461456,235.393387 
	C255.901764,236.640945 255.953171,237.561295 255.235657,238.723724 
z"/>
<path fill="#D2B04A" opacity="1.000000" stroke="none" 
	d="
M296.104370,109.314529 
	C296.479126,105.405617 297.011017,101.207520 303.116669,101.670212 
	C301.122040,104.263763 298.752441,106.697052 296.104370,109.314529 
z"/>
<path fill="#D8AB30" opacity="1.000000" stroke="none" 
	d="
M280.446472,137.901993 
	C280.213654,135.814545 281.582245,134.391861 283.276398,135.375168 
	C287.426270,137.783813 292.020752,136.316788 296.621307,137.642609 
	C291.627350,137.870834 286.269012,137.922836 280.446472,137.901993 
z"/>
<path fill="#D2B04A" opacity="1.000000" stroke="none" 
	d="
M327.318481,77.746902 
	C326.720734,78.502090 326.446747,79.008049 326.120667,79.800575 
	C326.068573,80.087143 326.033844,80.032219 326.064362,80.043152 
	C325.591827,80.399025 324.990967,80.488106 324.237183,80.914566 
	C322.559296,82.241158 322.585968,84.737305 320.080994,85.318611 
	C320.380524,81.473679 321.311096,77.726097 326.622864,77.009430 
	C327.210968,77.164818 327.426605,77.331245 327.318481,77.746902 
z"/>
<path fill="#D8AB30" opacity="1.000000" stroke="none" 
	d="
M334.598969,137.833282 
	C334.944855,138.091583 334.954926,138.470215 334.960052,138.659500 
	C330.351196,138.890762 325.737183,138.932739 320.679504,138.886658 
	C318.976135,138.277267 317.619720,138.655136 316.137329,138.036072 
	C318.271973,136.637589 320.748810,137.100388 323.592896,137.002228 
	C327.374573,138.142761 330.854736,137.123230 334.598969,137.833282 
z"/>
<path fill="#C16B6F" opacity="1.000000" stroke="none" 
	d="
M302.933807,168.656296 
	C298.014404,168.956467 295.358215,165.832138 293.724762,161.285431 
	C297.259796,162.928833 299.116882,166.729218 302.933807,168.656296 
z"/>
<path fill="#D2B04A" opacity="1.000000" stroke="none" 
	d="
M312.082947,93.295074 
	C310.556183,89.103752 312.379059,87.259186 317.117371,87.641266 
	C315.777222,89.573181 314.052185,91.341583 312.082947,93.295074 
z"/>
<path fill="#FFF9B1" opacity="1.000000" stroke="none" 
	d="
M268.929688,66.270180 
	C268.889557,66.709808 268.467865,66.837616 268.247162,66.851524 
	C268.015625,66.160278 268.004761,65.455124 267.945557,64.398949 
	C267.595978,63.620125 267.478485,63.146732 267.716888,62.292664 
	C267.909424,59.614922 267.929932,57.272247 267.905334,54.492813 
	C267.770508,53.864803 267.680756,53.673550 267.773926,53.223534 
	C268.003845,52.259945 268.050812,51.555119 268.095734,50.496323 
	C268.093689,50.142353 268.500336,50.220856 268.695435,50.294621 
	C268.916962,55.522442 268.943390,60.676495 268.929688,66.270180 
z"/>
<path fill="#C16B6F" opacity="1.000000" stroke="none" 
	d="
M260.993835,64.600616 
	C260.283508,65.001816 259.576385,65.002228 258.515503,65.003326 
	C258.117859,63.933189 258.074005,62.862373 258.100647,61.394501 
	C258.875244,60.997345 259.579315,60.997246 260.634735,60.995827 
	C260.989746,62.062950 260.993408,63.131397 260.993835,64.600616 
z"/>
<path fill="#D8AB30" opacity="1.000000" stroke="none" 
	d="
M303.451538,137.893707 
	C306.384796,136.492889 309.826355,136.807587 313.636047,137.650665 
	C310.629852,137.873611 307.267334,137.920776 303.451538,137.893707 
z"/>
<path fill="#0D3146" opacity="1.000000" stroke="none" 
	d="
M187.294571,193.285645 
	C186.999207,192.274658 187.002060,191.558456 187.008698,190.485474 
	C188.178818,190.236877 189.345154,190.345108 190.793884,190.667297 
	C191.530304,191.746109 191.244019,192.490616 190.361816,193.440292 
	C189.197220,194.012894 188.386902,193.981003 187.294571,193.285645 
z"/>
<path fill="#0D303F" opacity="1.000000" stroke="none" 
	d="
M190.323105,193.388947 
	C190.268631,192.472046 190.538513,191.942886 190.942322,191.147491 
	C191.481598,190.887619 191.886948,190.893982 192.596252,190.886017 
	C192.900238,190.871704 193.393082,190.926300 193.393082,190.926300 
	C193.393082,190.926300 193.637604,190.494919 193.809814,190.316467 
	C193.982040,190.138016 194.466034,190.031021 194.708221,189.979095 
	C195.255814,190.732361 195.561234,191.537567 195.927567,192.659882 
	C194.458786,194.917557 192.652481,195.010788 190.323105,193.388947 
z"/>
<path fill="#FFF9B1" opacity="1.000000" stroke="none" 
	d="
M182.675781,138.915161 
	C184.593323,137.579468 187.075699,137.983154 189.820038,138.528564 
	C187.761826,138.860031 185.430130,138.913025 182.675781,138.915161 
z"/>
<path fill="#D8AB30" opacity="1.000000" stroke="none" 
	d="
M200.702820,82.378708 
	C201.310806,83.798866 201.594925,84.623474 201.930771,85.772049 
	C200.714157,84.950790 199.445816,83.805580 198.297195,82.112930 
	C199.110046,81.285393 199.763123,81.366364 200.702820,82.378708 
z"/>
<path fill="#FFF9B1" opacity="1.000000" stroke="none" 
	d="
M207.554199,138.877304 
	C208.784698,137.717911 210.516113,137.800079 212.505890,138.619400 
	C211.131287,138.893326 209.541000,138.914383 207.554199,138.877304 
z"/>
<path fill="#FFF9B1" opacity="1.000000" stroke="none" 
	d="
M315.676819,137.767593 
	C317.210815,137.860550 318.480652,138.027710 319.993164,138.496735 
	C318.546204,139.147247 316.859802,139.245728 315.027283,138.338196 
	C315.053040,137.909195 315.232849,137.875504 315.676819,137.767593 
z"/>
<path fill="#FFF9B1" opacity="1.000000" stroke="none" 
	d="
M331.059479,79.393646 
	C332.356598,79.004593 333.792603,78.978996 335.659027,78.986038 
	C334.702911,80.879738 332.874512,79.814262 331.059479,79.393646 
z"/>
<path fill="#D2B04A" opacity="1.000000" stroke="none" 
	d="
M317.995392,87.354919 
	C317.618347,86.582169 317.667267,85.802002 319.181152,85.760345 
	C319.059357,86.281334 318.623596,86.745270 317.995392,87.354919 
z"/>
<path fill="#C16B6F" opacity="1.000000" stroke="none" 
	d="
M323.312256,187.925842 
	C322.442902,188.297134 321.665039,188.015976 321.431641,186.498169 
	C321.984985,186.660995 322.559509,187.177597 323.312256,187.925842 
z"/>
<path fill="#D8AB30" opacity="1.000000" stroke="none" 
	d="
M197.977631,82.019058 
	C197.336304,81.582825 196.737625,81.102577 196.034790,80.348648 
	C195.930618,80.074959 196.018402,79.989044 196.062897,79.946701 
	C197.438263,79.256912 198.167450,79.748238 198.265594,81.507980 
	C198.104828,81.886314 198.020264,81.975037 197.977631,82.019058 
z"/>
<path fill="#DDAF27" opacity="1.000000" stroke="none" 
	d="
M280.396576,124.961418 
	C280.586731,124.471741 281.042297,123.879501 281.776794,123.190765 
	C281.591187,123.682472 281.126587,124.270668 280.396576,124.961418 
z"/>
<path fill="#0D3146" opacity="1.000000" stroke="none" 
	d="
M193.767746,190.202393 
	C193.723373,190.424606 193.464706,190.711212 193.053131,190.934753 
	C193.069458,190.617661 193.287201,190.416016 193.767746,190.202393 
z"/>
<path fill="#12353E" opacity="1.000000" stroke="none" 
	d="
M238.632996,147.923889 
	C238.454391,148.239029 237.973999,148.546387 237.212875,148.924927 
	C237.398499,148.636108 237.864868,148.276108 238.632996,147.923889 
z"/>
<path fill="#D4AD3E" opacity="1.000000" stroke="none" 
	d="
M324.352600,81.080383 
	C324.531677,80.819519 325.022003,80.499474 325.803619,80.116760 
	C325.881012,80.765846 325.342194,80.996765 324.352600,81.080383 
z"/>
<path fill="#C16B6F" opacity="1.000000" stroke="none" 
	d="
M321.036896,185.749268 
	C320.952545,185.999557 320.763153,186.000961 320.282776,185.998413 
	C319.991791,185.994476 319.995758,185.581009 319.996399,185.374298 
	C320.308655,185.278519 320.620270,185.389450 321.036896,185.749268 
z"/>
<path fill="#CB6864" opacity="1.000000" stroke="none" 
	d="
M269.904022,150.223740 
	C270.203094,150.259628 270.436920,150.496384 270.807739,150.941925 
	C270.741058,151.102295 270.537323,151.053894 270.029053,150.918365 
	C269.724548,150.831253 269.838776,150.424606 269.904022,150.223740 
z"/>
<path fill="#D8AB30" opacity="1.000000" stroke="none" 
	d="
M177.709747,55.978096 
	C177.744064,56.142391 177.520035,56.405537 177.096313,56.835999 
	C177.081543,56.694530 177.266479,56.385738 177.709747,55.978096 
z"/>
<path fill="#E5AC11" opacity="1.000000" stroke="none" 
	d="
M359.093994,142.554413 
	C357.444000,142.939301 355.918915,142.815186 354.455505,143.059998 
	C349.326996,143.917892 345.876770,141.755920 343.287994,137.167542 
	C342.330597,134.506836 339.555115,135.561356 337.686554,133.768188 
	C343.201721,133.152222 344.249847,127.292236 348.868408,125.331131 
	C360.788574,122.865257 363.700592,133.867828 359.093994,142.554413 
z"/>
<path fill="#E5AC11" opacity="1.000000" stroke="none" 
	d="
M324.963257,69.350754 
	C324.818481,66.357437 325.077942,63.850105 326.887878,61.353348 
	C332.708832,56.605022 336.371857,56.695972 342.673401,61.709679 
	C342.945892,62.019943 342.971283,62.514748 342.986969,62.761978 
	C344.507721,65.312592 344.130615,67.754654 343.263306,70.595581 
	C342.526001,71.588074 342.058838,72.197937 341.316925,72.925430 
	C337.449677,74.938019 333.570984,74.897446 329.631409,75.094940 
	C325.339996,75.310074 323.958862,73.762077 324.963257,69.350754 
z"/>
<path fill="#DAA82A" opacity="1.000000" stroke="none" 
	d="
M270.985596,126.582626 
	C266.815460,126.354652 265.056366,131.879959 260.345337,130.951111 
	C259.944519,130.930115 260.000702,130.459290 260.032104,130.224289 
	C260.295837,129.692810 260.597687,129.513245 261.173401,129.268982 
	C261.975037,126.304916 264.168884,125.289528 266.857361,124.345963 
	C268.230072,124.483208 269.261810,124.718613 270.625305,124.944221 
	C270.966339,125.374275 270.975555,125.814125 270.985596,126.582626 
z"/>
<path fill="#D2B04A" opacity="1.000000" stroke="none" 
	d="
M335.227722,138.003082 
	C331.536133,137.801834 328.058075,138.570526 324.360046,137.213104 
	C328.035706,136.993805 332.057037,136.982086 336.542114,136.982635 
	C336.507385,137.301437 336.009003,137.608002 335.227722,138.003082 
z"/>
<path fill="#D4B360" opacity="1.000000" stroke="none" 
	d="
M327.446777,77.994774 
	C326.994720,77.996132 326.988434,77.497269 326.991882,77.247833 
	C330.379303,76.984108 333.763275,76.969810 337.614380,76.961807 
	C334.841614,78.842766 331.287201,77.593231 327.446777,77.994774 
z"/>
<path fill="#D4B360" opacity="1.000000" stroke="none" 
	d="
M322.971222,70.579285 
	C321.847870,69.283859 321.708771,67.581680 322.343811,65.708702 
	C323.424133,66.453384 322.819489,67.530785 323.101868,68.713226 
	C323.091766,69.448700 323.049133,69.860168 322.971222,70.579285 
z"/>
<path fill="#06364B" opacity="1.000000" stroke="none" 
	d="
M189.623535,193.001266 
	C191.710556,192.997116 193.422333,192.992996 195.561295,192.982941 
	C197.188400,194.549866 196.957718,196.401581 197.013092,198.594757 
	C197.019958,198.990662 197.001236,199.005081 196.995468,199.014099 
	C195.317200,200.507660 196.556015,202.804031 195.236603,204.725861 
	C193.648895,207.618988 191.439377,209.371536 188.905029,210.663055 
	C184.567017,212.873688 180.187912,210.878357 178.816635,206.202896 
	C176.448532,198.128830 178.976471,193.592789 186.586334,192.993866 
	C187.746994,192.994339 188.497635,192.997818 189.623535,193.001266 
z"/>
<path fill="#06364B" opacity="1.000000" stroke="none" 
	d="
M224.506134,165.494843 
	C224.513077,165.513992 224.499191,165.475693 224.506134,165.494843 
z"/>
<path fill="#D4646A" opacity="1.000000" stroke="none" 
	d="
M261.426331,55.968903 
	C261.164642,50.397217 259.821228,45.639690 254.506210,42.579887 
	C252.087234,41.187321 252.956070,38.369701 253.126022,36.173992 
	C253.478821,31.615536 259.165222,28.157652 264.403900,29.082914 
	C269.490112,29.981251 274.314423,35.789787 272.704742,39.760223 
	C271.448547,42.858677 269.080750,45.506462 267.079773,48.681923 
	C265.309418,49.645100 265.031830,51.043739 264.995087,52.557461 
	C264.944244,54.649574 264.043945,55.922375 261.426331,55.968903 
z"/>
<path fill="#E1AB14" opacity="1.000000" stroke="none" 
	d="
M261.009247,129.080200 
	C262.029938,130.369827 260.795349,129.701065 260.264771,129.978912 
	C260.063507,129.989288 259.987091,129.559143 259.946716,129.345001 
	C260.151184,129.111649 260.396057,129.092453 261.009247,129.080200 
z"/>
<path fill="#C57C7B" opacity="1.000000" stroke="none" 
	d="
M267.749451,62.146248 
	C267.943054,62.423641 267.997131,62.889687 267.974213,63.701828 
	C267.801453,63.476917 267.705719,62.905903 267.749451,62.146248 
z"/>
<path fill="#C57C7B" opacity="1.000000" stroke="none" 
	d="
M267.850983,53.079224 
	C267.973206,53.149380 267.989563,53.333988 267.933044,53.787327 
	C267.640259,53.789787 267.601898,53.502323 267.850983,53.079224 
z"/>
<path fill="#C57C7B" opacity="1.000000" stroke="none" 
	d="
M267.155029,49.198132 
	C267.269684,49.187943 267.488007,49.386158 267.817413,49.786209 
	C267.690033,49.812870 267.466797,49.619034 267.155029,49.198132 
z"/>
<path fill="#D45F67" opacity="1.000000" stroke="none" 
	d="
M322.677795,191.158432 
	C325.589142,193.791183 328.442413,195.721466 332.519806,194.272934 
	C336.007629,193.033859 341.664825,196.752350 342.796295,200.940063 
	C343.925140,205.118042 340.925659,210.120422 336.816589,210.912720 
	C328.094696,212.594467 324.165741,209.638855 323.339142,200.593353 
	C323.159973,198.632416 322.043762,197.234161 321.085815,195.327087 
	C321.068176,193.636169 320.900482,192.159119 322.677795,191.158432 
z"/>
<path fill="#C16B6F" opacity="1.000000" stroke="none" 
	d="
M320.002838,186.004150 
	C320.005676,186.008316 319.898102,186.052643 319.944946,186.023560 
	C319.991791,185.994476 320.000000,186.000000 320.002838,186.004150 
z"/>
<path fill="#E1AB14" opacity="1.000000" stroke="none" 
	d="
M176.963821,69.027611 
	C177.014816,65.822739 176.538040,62.503487 178.876404,59.352112 
	C187.763016,54.609726 193.785172,57.129974 195.035873,65.747063 
	C195.425461,68.431274 196.665802,70.662888 198.679779,72.849770 
	C199.951431,75.363510 198.599014,75.644615 196.363831,75.264542 
	C191.317642,75.006142 186.669968,74.975388 181.568237,74.930626 
	C181.114182,74.916618 181.088287,74.898628 181.080505,74.885513 
	C179.837921,73.093269 178.368729,71.471550 177.213135,69.249954 
	C176.975449,69.020317 176.977264,69.017578 176.963821,69.027611 
z"/>
<path fill="#D9A91F" opacity="1.000000" stroke="none" 
	d="
M195.983307,75.345306 
	C197.075668,74.921188 198.163834,74.762192 198.865265,73.309998 
	C205.046707,76.916054 209.194870,82.876106 214.562363,87.521881 
	C219.788895,92.045677 223.466370,98.082062 229.076004,102.230019 
	C230.143692,103.019508 231.160233,104.147240 230.410614,105.621445 
	C229.549271,107.315369 227.912827,107.064995 226.477371,106.601677 
	C224.815735,106.065353 224.017731,104.584061 223.047333,103.200607 
	C217.777267,95.687241 210.749146,89.838104 204.112656,83.629456 
	C203.588181,83.138794 202.553528,83.193451 201.391342,82.984459 
	C201.026703,82.974251 201.006882,82.997284 201.015274,82.992256 
	C199.869736,80.817741 198.206314,79.074791 196.224136,77.173096 
	C196.036819,76.477554 196.019073,76.065643 195.983307,75.345306 
z"/>
<path fill="#DEB022" opacity="1.000000" stroke="none" 
	d="
M342.914795,61.647865 
	C341.092560,61.426502 339.033844,61.165035 337.427917,60.171654 
	C333.905792,57.993027 330.897736,59.512447 327.404053,60.964951 
	C330.868286,55.042759 339.660187,55.185852 342.914795,61.647865 
z"/>
<path fill="#DEB022" opacity="1.000000" stroke="none" 
	d="
M343.316040,70.813721 
	C342.993805,68.616898 342.994446,66.255577 342.998871,63.451729 
	C346.031433,65.321304 345.425140,67.936134 343.316040,70.813721 
z"/>
<path fill="#DEB022" opacity="1.000000" stroke="none" 
	d="
M258.528687,131.020401 
	C258.944702,132.423050 259.056641,133.876617 257.273071,134.870422 
	C230.698517,135.008698 204.438171,135.009369 178.177841,134.988098 
	C175.885361,134.986237 173.465485,135.402695 171.295837,133.250305 
	C172.357498,130.153625 174.989288,131.045166 177.171494,131.040878 
	C204.134415,130.987854 231.097488,131.007675 258.528687,131.020401 
z"/>
<path fill="#06364B" opacity="1.000000" stroke="none" 
	d="
M156.369720,143.404541 
	C153.235931,145.758408 151.308090,144.378723 149.271896,142.174286 
	C145.818970,138.436066 145.147125,134.608795 147.549667,129.990295 
	C149.367355,126.496124 154.305084,125.100311 160.418091,127.272423 
	C164.349457,128.669357 163.611755,132.608414 162.561218,134.907745 
	C161.203644,137.879089 159.902618,141.357208 156.369720,143.404541 
z"/>
<path fill="#0D3146" opacity="1.000000" stroke="none" 
	d="
M195.321320,204.835190 
	C195.219223,203.058395 194.361420,200.861969 196.666565,199.182068 
	C196.789291,200.965179 197.629959,203.155106 195.321320,204.835190 
z"/>
<path fill="#E0AD17" opacity="1.000000" stroke="none" 
	d="
M255.332825,239.117523 
	C254.555908,238.392914 254.106171,237.791901 253.385559,237.080399 
	C251.811646,233.972641 252.763428,230.841309 252.827606,227.388306 
	C257.893585,226.134186 260.405304,222.619843 260.946991,215.810593 
	C261.102234,213.858841 261.000366,211.886627 261.020233,209.474335 
	C263.569183,207.372910 264.257629,209.845871 265.742371,211.384338 
	C267.274963,214.535522 265.776245,217.517136 266.707886,220.695984 
	C266.934601,221.024353 266.962982,221.021393 266.964478,221.035553 
	C268.126221,222.883286 267.551971,225.833801 270.745667,226.758438 
	C272.285858,229.218979 273.349396,231.504593 272.988281,234.583099 
	C272.579285,235.253433 272.036346,235.433609 271.780670,235.809280 
	C265.862366,244.504807 265.066284,244.680328 255.332825,239.117523 
z"/>
<path fill="#DAA82A" opacity="1.000000" stroke="none" 
	d="
M265.561066,211.285675 
	C263.850342,211.103119 262.732300,210.175323 261.319153,209.136200 
	C261.012787,194.998535 261.001495,180.972214 260.989136,166.478470 
	C261.002502,157.967728 261.016968,149.924393 261.046631,141.405380 
	C263.109528,141.908859 262.906067,143.798813 263.002167,145.604111 
	C263.095184,147.351944 262.561401,149.288162 265.005096,151.102448 
	C266.053131,152.162689 266.355255,152.779877 266.358459,153.444321 
	C266.450043,172.476868 266.862305,191.510803 265.561066,211.285675 
z"/>
<path fill="#D4B360" opacity="1.000000" stroke="none" 
	d="
M252.863739,227.038513 
	C253.074478,230.021515 253.061844,233.044586 253.081940,236.518784 
	C250.735916,234.220627 252.551300,230.995514 252.148499,227.601334 
	C252.196869,227.175125 252.640366,227.078598 252.863739,227.038513 
z"/>
<path fill="#DAA82A" opacity="1.000000" stroke="none" 
	d="
M266.605835,146.125305 
	C266.946869,147.381943 266.981567,148.807724 267.030121,150.660599 
	C267.180969,151.264557 267.317932,151.441437 267.298035,151.914978 
	C266.411713,152.442154 265.843262,152.220779 265.225647,151.322693 
	C265.033417,151.047668 264.999634,151.005371 264.981812,150.984192 
	C265.109833,149.321198 264.633606,147.501434 266.605835,146.125305 
z"/>
<path fill="#D4B360" opacity="1.000000" stroke="none" 
	d="
M266.705750,152.392166 
	C266.988281,151.991241 267.018341,151.538574 267.031158,151.313126 
	C267.959930,152.388535 268.030731,153.882401 268.029266,155.393509 
	C268.010040,175.378128 267.998596,195.362778 267.949951,215.347321 
	C267.947571,216.322495 267.619873,217.296860 267.233032,218.624771 
	C265.316193,217.051590 266.268585,214.702652 266.000153,212.063278 
	C266.000122,193.961594 265.990540,176.344391 266.013092,158.727219 
	C266.015625,156.745956 265.746643,154.732956 266.705750,152.392166 
z"/>
<path fill="#CB6864" opacity="1.000000" stroke="none" 
	d="
M272.585358,141.048157 
	C272.781769,143.813019 273.767395,146.929550 270.221985,148.857880 
	C269.221497,145.911484 266.813751,142.330963 272.585358,141.048157 
z"/>
<path fill="#DAA82A" opacity="1.000000" stroke="none" 
	d="
M266.634216,211.817932 
	C266.945160,214.075974 266.977722,216.095001 267.016296,218.545975 
	C267.003448,219.432709 266.984528,219.887482 266.950104,220.683304 
	C263.618683,218.958176 265.515320,215.635483 264.972260,212.465424 
	C264.968384,212.030914 264.995239,212.004700 265.008301,211.991882 
	C265.403656,211.637329 265.851349,211.513535 266.634216,211.817932 
z"/>
<path fill="#DAA82A" opacity="1.000000" stroke="none" 
	d="
M270.919220,226.681000 
	C267.161743,227.240189 266.885864,224.694061 266.972076,221.454605 
	C267.495880,221.572311 268.025757,222.094879 268.762604,222.804413 
	C269.592133,224.116760 270.214691,225.242142 270.919220,226.681000 
z"/>
<path fill="#0D3146" opacity="1.000000" stroke="none" 
	d="
M234.811310,151.766418 
	C234.825836,151.729752 235.063675,151.959183 235.063675,151.959183 
	C235.063675,151.959183 234.858444,151.965118 234.791077,151.898926 
	C234.723709,151.832718 234.796799,151.803070 234.811310,151.766418 
z"/>
<path fill="#D4B360" opacity="1.000000" stroke="none" 
	d="
M357.980835,145.004669 
	C355.703918,146.526367 353.292236,145.850143 350.895081,145.022476 
	C352.977020,145.022476 355.058990,145.022476 357.561371,145.023209 
	C357.981781,145.023941 357.997040,144.996490 357.980835,145.004669 
z"/>
<path fill="#D4AD3E" opacity="1.000000" stroke="none" 
	d="
M195.943222,77.122589 
	C199.058228,77.424995 200.769760,79.155052 201.015717,82.617287 
	C200.251205,82.676888 199.478729,82.366547 198.405548,81.971268 
	C197.618469,81.302902 197.132126,80.719490 196.376587,80.020218 
	C196.015533,79.054810 195.923706,78.205261 195.943222,77.122589 
z"/>
<path fill="#D4B360" opacity="1.000000" stroke="none" 
	d="
M184.019867,77.296600 
	C185.559723,77.141335 186.917603,77.141335 188.275482,77.141335 
	C186.764542,78.097168 185.287094,78.457031 184.019867,77.296600 
z"/>
<path fill="#DAA82A" opacity="1.000000" stroke="none" 
	d="
M176.988922,69.383347 
	C179.418869,69.875793 180.844376,71.531036 181.046417,74.520309 
	C178.478012,74.146713 177.171097,72.398445 176.988922,69.383347 
z"/>
<path fill="#D4AD3E" opacity="1.000000" stroke="none" 
	d="
M266.935760,211.583191 
	C266.492432,212.039505 266.072235,212.022049 265.336700,211.991837 
	C265.022095,191.977280 265.022858,171.975479 265.028534,151.510681 
	C265.521851,151.283478 266.010254,151.519302 266.743469,151.873169 
	C266.978485,171.697296 266.968689,191.403351 266.935760,211.583191 
z"/>
</svg>